HIERARCHY
ROOT Hips
{
	OFFSET 0.0000 0.0000 0.0000
	CHANNELS 6 Xposition Yposition Zposition Zrotation Xrotation Yrotation
	JOINT Spine1
	{
		OFFSET -0.0137 5.0038 -0.0537
		CHANNELS 3 Zrotation Xrotation Yrotation
		JOINT Spine2
		{
			OFFSET -0.0000 7.1253 -0.0298
			CHANNELS 3 Zrotation Xrotation Yrotation
			JOINT Chest
			{
				OFFSET -0.0000 7.5501 -0.8160
				CHANNELS 3 Zrotation Xrotation Yrotation
				JOINT Neck1
				{
					OFFSET -0.1817 26.3113 -0.5533
					CHANNELS 3 Zrotation Xrotation Yrotation
					JOINT Neck2
					{
						OFFSET -0.0000 7.7094 2.3026
						CHANNELS 3 Zrotation Xrotation Yrotation
						JOINT Head
						{
							OFFSET -0.0000 6.1289 1.9537
							CHANNELS 3 Zrotation Xrotation Yrotation
							JOINT Jaw
							{
								OFFSET 0.0026 0.4756 3.0949
								CHANNELS 3 Zrotation Xrotation Yrotation
								End Site
								{
									OFFSET 0.0 1.0 0.0
								}
							}
							JOINT LeftEye
							{
								OFFSET 3.2064 5.3802 7.5869
								CHANNELS 3 Zrotation Xrotation Yrotation
								End Site
								{
									OFFSET 0.0 1.0 0.0
								}
							}
							JOINT RightEye
							{
								OFFSET -3.2224 5.3619 7.5582
								CHANNELS 3 Zrotation Xrotation Yrotation
								End Site
								{
									OFFSET 0.0 1.0 0.0
								}
							}
						}
					}
				}
				JOINT LeftShoulder
				{
					OFFSET 1.6217 23.2372 5.1134
					CHANNELS 3 Zrotation Xrotation Yrotation
					JOINT LeftArm
					{
						OFFSET 14.9198 0.0000 -5.5023
						CHANNELS 3 Zrotation Xrotation Yrotation
						JOINT LeftForeArm
						{
							OFFSET 28.7393 0.0000 -0.0026
							CHANNELS 3 Zrotation Xrotation Yrotation
							JOINT LeftHand
							{
								OFFSET 27.0940 -0.0000 0.0026
								CHANNELS 3 Zrotation Xrotation Yrotation
								JOINT LeftHandThumbEnd
								{
									OFFSET 12.2686 -3.2202 4.8331
									CHANNELS 3 Zrotation Xrotation Yrotation
									End Site
									{
										OFFSET 0.0 1.0 0.0
									}
								}
								JOINT LeftHandMiddleEnd
								{
									OFFSET 19.0120 -0.3129 -0.0340
									CHANNELS 3 Zrotation Xrotation Yrotation
									End Site
									{
										OFFSET 0.0 1.0 0.0
									}
								}
							}
						}
					}
				}
				JOINT RightShoulder
				{
					OFFSET -1.3801 23.1803 5.2142
					CHANNELS 3 Zrotation Xrotation Yrotation
					JOINT RightArm
					{
						OFFSET -15.0372 0.0000 -5.5456
						CHANNELS 3 Zrotation Xrotation Yrotation
						JOINT RightForeArm
						{
							OFFSET -28.7366 0.0000 -0.0026
							CHANNELS 3 Zrotation Xrotation Yrotation
							JOINT RightHand
							{
								OFFSET -27.1336 -0.0000 0.0026
								CHANNELS 3 Zrotation Xrotation Yrotation
								JOINT RightHandThumbEnd
								{
									OFFSET -12.2642 -3.2115 4.8040
									CHANNELS 3 Zrotation Xrotation Yrotation
									End Site
									{
										OFFSET 0.0 1.0 0.0
									}
								}
								JOINT RightHandMiddleEnd
								{
									OFFSET -19.0006 -0.3066 -0.0316
									CHANNELS 3 Zrotation Xrotation Yrotation
									End Site
									{
										OFFSET 0.0 1.0 0.0
									}
								}
							}
						}
					}
				}
			}
		}
	}
	JOINT LeftLeg
	{
		OFFSET 10.0432 -8.4345 2.5957
		CHANNELS 3 Zrotation Xrotation Yrotation
		JOINT LeftShin
		{
			OFFSET -0.0000 -43.2218 -0.8029
			CHANNELS 3 Zrotation Xrotation Yrotation
			JOINT LeftFoot
			{
				OFFSET 0.0000 -42.1551 -3.4815
				CHANNELS 3 Zrotation Xrotation Yrotation
				JOINT LeftToeBase
				{
					OFFSET 0.0000 -5.0595 13.2315
					CHANNELS 3 Zrotation Xrotation Yrotation
					End Site
					{
						OFFSET 0.0 1.0 0.0
					}
				}
			}
		}
	}
	JOINT RightLeg
	{
		OFFSET -10.0473 -8.2953 2.6203
		CHANNELS 3 Zrotation Xrotation Yrotation
		JOINT RightShin
		{
			OFFSET 0.0000 -43.3622 -0.8056
			CHANNELS 3 Zrotation Xrotation Yrotation
			JOINT RightFoot
			{
				OFFSET 0.0000 -42.1174 -3.4784
				CHANNELS 3 Zrotation Xrotation Yrotation
				JOINT RightToeBase
				{
					OFFSET -0.0000 -5.0796 13.2842
					CHANNELS 3 Zrotation Xrotation Yrotation
					End Site
					{
						OFFSET 0.0 1.0 0.0
					}
				}
			}
		}
	}
}
MOTION
Frames: 6
Frame Time: 0.033333
-330.8389 96.5602 -91.3768 1.6999 1.1514 26.3083 -3.2214 0.7700 -1.8339 -1.1088 -4.4910 -5.2612 1.5860 9.2909 -8.0194 5.9485 -4.8753 0.6505 -3.6614 -3.8053 -10.1277 0.8944 -19.8117 -15.9272 0.0019 0.0646 0.0450 0.5575 -10.5239 -3.8623 -0.5545 -10.5619 3.9445 -11.9821 6.8655 -16.5684 -56.0522 -8.4981 -25.1327 -0.7465 -0.0841 -23.9713 3.5285 -17.1864 -0.4800 -15.4435 10.7627 15.7252 -60.6160 1.5802 1.7904 18.3160 5.4904 4.1126 74.8641 6.3026 -13.0688 -0.2152 0.1351 9.4633 -7.1101 -13.0522 -0.8853 15.3984 7.3567 -15.8657 50.5240 -3.4179 -4.9568 -13.9320 4.3973 2.3360 -0.1379 21.7967 0.7325 9.6956 -2.2150 -22.5972 2.0764 -12.4493 -2.2916 20.9739 -15.7461 -39.2487 -0.7371 28.1387 -2.7547 -14.7319 3.7629 0.2622 -1.4588 -9.7849 1.0128
-334.6153 96.5627 -93.1105 2.4220 0.7871 25.2123 -3.9728 1.5408 -1.6744 -1.3205 -4.1595 -5.0152 0.8385 9.3695 -7.8016 7.0139 -4.8751 0.2663 -3.5794 -3.8284 -9.7399 1.2588 -19.9661 -15.6725 0.0016 0.0844 0.0332 0.5854 -10.5259 -3.8823 -0.5818 -10.5796 3.9442 -11.4063 7.1000 -16.1844 -54.7340 -9.0154 -24.5717 -0.9174 -0.1038 -24.9760 4.2073 -17.3222 -1.0531 -15.2968 10.6843 15.7156 -60.2046 1.5100 1.9167 18.6007 5.6765 4.2284 75.7951 5.6276 -12.3947 -0.0269 0.0897 9.1093 -7.3128 -12.1697 -0.5308 15.4433 7.3752 -15.9276 50.4975 -3.3772 -4.9046 -14.2531 3.1808 1.2808 -0.0232 21.1220 0.6371 13.3465 -5.5874 -20.7123 2.0109 -9.8411 -2.2638 21.3895 -18.1724 -39.6209 -0.6301 30.5580 -2.8635 -10.3890 9.0459 4.8940 -1.5040 -10.6780 1.0400
-338.0992 96.6764 -94.7784 3.2055 0.5394 23.2461 -4.5365 2.0350 -1.5219 -1.4574 -3.8359 -4.6917 0.1157 9.5223 -7.5456 7.3438 -4.8599 0.2523 -3.3754 -3.7916 -9.2537 1.6142 -19.8407 -15.1686 -0.0031 0.0842 0.0233 0.5971 -10.5121 -3.8898 -0.6034 -10.5677 3.9322 -11.2310 7.0783 -15.6080 -53.7966 -9.3681 -23.3410 -0.9895 -0.1441 -25.4591 4.7586 -17.4283 -1.4312 -15.3406 10.6553 15.7494 -60.1782 1.5274 2.1533 18.2423 5.9454 4.7811 76.3155 4.9803 -10.6460 0.0431 0.0934 9.2371 -7.4439 -11.3614 -0.5432 15.2895 7.3808 -16.0050 50.2268 -3.4781 -4.7418 -14.6708 2.6977 -0.1098 0.0068 18.4967 0.5726 14.5417 -8.2002 -17.9598 1.9190 -6.7378 -2.2332 20.8046 -21.4946 -39.0535 -0.4128 33.7384 -2.4020 3.6680 13.5865 13.7358 -1.3990 -8.7264 1.0259
-341.3919 96.6690 -96.3006 3.7562 0.2194 21.0952 -4.9189 2.5018 -1.5046 -1.5468 -3.6647 -4.3040 -0.3172 9.7263 -7.3046 7.1880 -4.7677 0.2841 -3.1563 -3.7168 -8.8613 1.9240 -19.4249 -14.7582 0.0054 0.0852 0.0718 0.5728 -10.5056 -3.8317 -0.5619 -10.5556 3.9662 -11.2254 6.8147 -15.1044 -53.3742 -9.1845 -21.9409 -0.8396 -0.1628 -25.3259 4.9986 -18.1681 -1.5446 -15.4649 10.7509 15.7497 -60.3652 1.6361 2.1799 17.4014 6.1822 5.3558 76.2809 4.6525 -8.7034 0.2588 0.0869 10.1516 -7.6552 -10.2598 -0.9978 14.9346 7.3986 -16.1092 50.1395 -3.6054 -4.6198 -14.7287 2.9216 -1.2155 0.0145 15.0998 0.4244 14.4640 -10.3414 -14.8579 1.8266 -3.6872 -2.1169 19.2529 -24.3485 -37.9858 -0.1900 36.0814 -1.5386 22.1846 13.1219 24.1898 -1.0088 -5.3414 1.0211
-344.5159 96.7262 -97.7530 3.9437 0.0074 19.1680 -5.2147 2.8125 -1.3850 -1.5750 -3.5087 -3.9202 -0.4694 10.0103 -7.2775 7.0841 -4.7529 0.3119 -3.0009 -3.6878 -8.5006 2.2146 -19.1363 -14.1893 0.0163 0.1224 0.0948 0.5743 -10.5243 -3.8177 -0.5406 -10.5352 3.9920 -11.6693 6.6124 -14.6133 -52.5962 -8.5545 -20.8934 -0.5854 -0.1642 -24.5906 4.8488 -18.7744 -1.3507 -15.4219 10.9482 15.7460 -60.5529 1.9291 1.9563 16.9680 6.0800 5.8405 75.4563 4.5861 -6.5420 0.3014 0.1012 11.3179 -8.3085 -9.7166 -0.8279 14.9332 7.3634 -16.1391 50.2280 -3.7028 -4.4820 -14.1993 2.6687 -1.7944 0.0945 12.8443 0.2634 13.4826 -11.7927 -11.5755 1.7348 -1.9382 -2.0846 17.8695 -26.3291 -37.3971 -0.2006 38.4208 -1.3884 23.1690 9.2390 20.1924 -1.1030 -5.1413 0.9256
-347.6171 97.1594 -99.1686 4.1453 -0.1227 16.9869 -5.4544 3.0016 -1.3231 -1.5747 -3.3932 -3.5778 -0.7351 10.4495 -7.0038 7.1245 -4.9397 0.1869 -3.0251 -3.6627 -8.0899 2.5106 -19.1006 -13.4685 0.0163 0.1353 0.0444 0.5832 -10.5087 -3.8732 -0.5499 -10.5223 3.9476 -12.5282 6.4066 -14.3533 -51.6321 -8.3528 -19.0516 -0.6581 -0.0450 -22.6543 4.3615 -18.6594 -0.8608 -15.3820 10.7474 15.6576 -60.3358 1.9255 1.9037 17.1245 5.7114 6.1247 73.7185 4.2772 -3.9750 0.2759 0.1413 12.3424 -9.7093 -9.9275 -0.3966 15.1055 7.2889 -16.3033 50.2693 -3.7389 -4.4443 -13.2270 1.4845 -1.8137 0.1936 12.4205 0.2789 11.7745 -11.9326 -8.8008 1.6983 -1.2820 -2.0241 15.8479 -27.9107 -36.5401 -0.5770 39.7034 -1.7535 15.7716 4.4205 7.1451 -1.4477 -4.5328 0.9466
